<svg xmlns="http://www.w3.org/2000/svg" width="1200" height="630" viewBox="0 0 1200 630">
  <rect width="1200" height="630" fill="#07111c" />
  <circle cx="224" cy="138" r="226" fill="#10b981" opacity="0.09" />
  <circle cx="998" cy="500" r="198" fill="#10b981" opacity="0.08" />

  <g opacity="0.18" stroke="#94a3b8" stroke-width="1">
    <path d="M0 126H1200" />
    <path d="M0 252H1200" />
    <path d="M0 378H1200" />
    <path d="M0 504H1200" />
    <path d="M180 0V630" />
    <path d="M420 0V630" />
    <path d="M660 0V630" />
    <path d="M900 0V630" />
  </g>

  <g transform="translate(92 84)">
    <rect x="0" y="0" width="156" height="156" rx="42" fill="#10b981" />
    <path d="M33 116V40H52L78 79L104 40H123V116H102V77L88 98H69L55 77V116Z" fill="#fff" />
  </g>

  <g fill="#fff">
    <text x="288" y="144" font-family="Arial, Helvetica, sans-serif" font-size="28" font-weight="700" letter-spacing="6" opacity="0.72">CONTACT</text>
    <text x="288" y="246" font-family="Arial, Helvetica, sans-serif" font-size="72" font-weight="700">Need help with</text>
    <text x="288" y="324" font-family="Arial, Helvetica, sans-serif" font-size="72" font-weight="700">the move?</text>
    <text x="288" y="390" font-family="Arial, Helvetica, sans-serif" font-size="27" font-weight="500" fill="#cbd5e1">Request a callback or call the team directly.</text>
  </g>

  <g transform="translate(894 206)">
    <rect x="0" y="0" width="252" height="326" rx="36" fill="#0c1826" stroke="#34d399" stroke-opacity="0.28" />
    <rect x="26" y="36" width="200" height="44" rx="14" fill="#10b981" fill-opacity="0.16" stroke="#34d399" stroke-opacity="0.45" />
    <text x="126" y="65" text-anchor="middle" font-family="Arial, Helvetica, sans-serif" font-size="22" font-weight="700" fill="#d1fae5">Book a callback</text>
    <rect x="26" y="108" width="200" height="44" rx="14" fill="#0b1320" stroke="#ffffff" stroke-opacity="0.12" />
    <text x="126" y="137" text-anchor="middle" font-family="Arial, Helvetica, sans-serif" font-size="20" font-weight="700" fill="#e2e8f0">Call 07 2143 2557</text>
    <rect x="26" y="180" width="200" height="44" rx="14" fill="#0b1320" stroke="#ffffff" stroke-opacity="0.12" />
    <text x="126" y="209" text-anchor="middle" font-family="Arial, Helvetica, sans-serif" font-size="20" font-weight="700" fill="#e2e8f0">Email the team</text>
    <circle cx="196" cy="268" r="14" fill="#10b981" opacity="0.8" />
    <circle cx="196" cy="308" r="14" fill="#10b981" opacity="0.45" />
  </g>
</svg>
