<svg xmlns="http://www.w3.org/2000/svg" width="1200" height="630" viewBox="0 0 1200 630">
  <rect width="1200" height="630" fill="#07111c" />
  <circle cx="210" cy="188" r="220" fill="#10b981" opacity="0.1" />
  <circle cx="1048" cy="94" r="160" fill="#34d399" opacity="0.08" />
  <circle cx="984" cy="504" r="190" fill="#10b981" opacity="0.08" />

  <g opacity="0.18" stroke="#94a3b8" stroke-width="1">
    <path d="M0 126H1200" />
    <path d="M0 252H1200" />
    <path d="M0 378H1200" />
    <path d="M0 504H1200" />
    <path d="M180 0V630" />
    <path d="M420 0V630" />
    <path d="M660 0V630" />
    <path d="M900 0V630" />
  </g>

  <g transform="translate(92 84)">
    <rect x="0" y="0" width="156" height="156" rx="42" fill="#10b981" />
    <path d="M33 116V40H52L78 79L104 40H123V116H102V77L88 98H69L55 77V116Z" fill="#fff" />
  </g>

  <g fill="#fff">
    <text x="288" y="144" font-family="Arial, Helvetica, sans-serif" font-size="28" font-weight="700" letter-spacing="6" opacity="0.72">SERVICES</text>
    <text x="288" y="246" font-family="Arial, Helvetica, sans-serif" font-size="76" font-weight="700">Choose the right</text>
    <text x="288" y="328" font-family="Arial, Helvetica, sans-serif" font-size="76" font-weight="700">move lane.</text>
    <text x="288" y="394" font-family="Arial, Helvetica, sans-serif" font-size="33" font-weight="500" fill="#cbd5e1">Household, vehicle, and specialty support under one system.</text>
  </g>

  <g transform="translate(286 454)">
    <rect x="0" y="0" width="188" height="58" rx="18" fill="#0b1320" stroke="#34d399" stroke-opacity="0.45" />
    <text x="94" y="37" text-anchor="middle" font-family="Arial, Helvetica, sans-serif" font-size="24" font-weight="700" fill="#d1fae5">Household</text>
    <rect x="208" y="0" width="188" height="58" rx="18" fill="#10b981" fill-opacity="0.18" stroke="#34d399" stroke-opacity="0.55" />
    <text x="302" y="37" text-anchor="middle" font-family="Arial, Helvetica, sans-serif" font-size="24" font-weight="700" fill="#d1fae5">Vehicles</text>
    <rect x="416" y="0" width="212" height="58" rx="18" fill="#0b1320" stroke="#ffffff" stroke-opacity="0.14" />
    <text x="522" y="37" text-anchor="middle" font-family="Arial, Helvetica, sans-serif" font-size="24" font-weight="700" fill="#d1fae5">Specialty</text>
  </g>
</svg>
